ply
format ascii 1.0
comment Created by Blender 2.79 (sub 0) - www.blender.org, source file: ''
comment # Copyright 2019 The TensorFlow Authors. All Rights Reserved.
comment #
comment # Licensed under the Apache License, Version 2.0 (the "License");
comment # you may not use this file except in compliance with the License.
comment # You may obtain a copy of the License at
comment #
comment #     http://www.apache.org/licenses/LICENSE-2.0
comment #
comment # Unless required by applicable law or agreed to in writing, software
comment # distributed under the License is distributed on an "AS IS" BASIS,
comment # WITHOUT WARRANTIES OR CONDITIONS OF ANY KIND, either express or implied.
comment # See the License for the specific language governing permissions and
comment # limitations under the License.
comment # ==============================================================================
element vertex 82
property float x
property float y
property float z
property uchar red
property uchar green
property uchar blue
element face 80
property list uchar uint vertex_indices
end_header
0.000000 0.000000 -1.000000 3 255 0
0.425323 -0.309011 -0.850654 5 255 2
-0.162456 -0.499995 -0.850654 3 255 0
0.723607 -0.525725 -0.447220 165 120 182
0.425323 -0.309011 -0.850654 91 166 91
0.850648 0.000000 -0.525736 224 126 242
-0.525730 0.000000 -0.850652 108 255 107
0.000000 0.000000 -1.000000 60 196 59
-0.525730 0.000000 -0.850652 117 240 116
-0.162456 0.499995 -0.850654 245 116 247
0.425323 0.309011 -0.850654 249 22 252
0.723607 -0.525725 -0.447220 92 219 122
0.850648 0.000000 -0.525736 204 224 233
0.951058 -0.309013 0.000000 88 133 198
-0.276388 -0.850649 -0.447220 45 253 44
0.262869 -0.809012 -0.525738 16 253 15
0.000000 -1.000000 0.000000 65 251 67
-0.894426 0.000000 -0.447216 252 254 92
-0.688189 -0.499997 -0.525736 153 254 16
-0.951058 -0.309013 0.000000 243 253 0
-0.276388 0.850649 -0.447220 254 83 255
-0.688189 0.499997 -0.525736 255 250 244
-0.587786 0.809017 0.000000 255 251 255
0.723607 0.525725 -0.447220 252 1 255
0.262869 0.809012 -0.525738 252 0 255
0.587786 0.809017 0.000000 253 22 255
0.723607 -0.525725 -0.447220 186 179 255
0.951058 -0.309013 0.000000 112 98 255
0.587786 -0.809017 0.000000 86 70 255
-0.587786 -0.809017 0.000000 155 255 154
-0.951058 0.309013 0.000000 255 252 15
0.000000 1.000000 0.000000 254 85 255
0.951058 0.309013 0.000000 255 210 255
0.276388 -0.850649 0.447220 156 147 255
0.688189 -0.499997 0.525736 27 6 255
0.162456 -0.499995 0.850654 241 230 245
-0.723607 -0.525725 0.447220 255 251 0
-0.262869 -0.809012 0.525738 255 255 235
-0.425323 -0.309011 0.850654 255 251 244
-0.723607 0.525725 0.447220 255 254 192
-0.850648 0.000000 0.525736 255 253 0
-0.425323 0.309011 0.850654 255 185 181
0.276388 0.850649 0.447220 255 50 41
-0.262869 0.809012 0.525738 255 184 180
0.162456 0.499995 0.850654 255 27 15
0.894426 0.000000 0.447216 204 171 225
0.688189 0.499997 0.525736 255 54 43
0.525730 0.000000 0.850652 253 68 60
0.000000 0.000000 1.000000 255 38 26
-0.262869 -0.809012 0.525738 255 255 255
0.951058 0.309013 0.000000 250 134 181
0.894426 0.000000 0.447216 204 170 225
0.951058 0.309013 0.000000 247 203 255
0.688189 0.499997 0.525736 255 255 255
0.587786 0.809017 0.000000 253 4 236
0.000000 1.000000 0.000000 254 35 201
-0.262869 0.809012 0.525738 255 255 255
-0.587786 0.809017 0.000000 255 239 243
-0.951058 -0.309013 0.000000 255 253 0
-0.587786 -0.809017 0.000000 255 253 47
-0.587786 -0.809017 0.000000 255 255 255
0.000000 -1.000000 0.000000 241 240 255
0.276388 0.850649 0.447220 255 253 255
-0.951058 0.309013 0.000000 255 251 40
-0.723607 0.525725 0.447220 255 255 193
-0.688189 0.499997 -0.525736 255 249 80
-0.587786 -0.809017 0.000000 155 254 29
-0.688189 -0.499997 -0.525736 153 255 152
-0.276388 -0.850649 -0.447220 47 255 44
0.587786 -0.809017 0.000000 31 193 87
0.951058 -0.309013 0.000000 132 84 255
0.894426 0.000000 0.447216 197 190 255
0.850648 0.000000 -0.525736 236 124 255
0.951058 0.309013 0.000000 247 203 254
-0.688189 0.499997 -0.525736 255 250 255
-0.525730 0.000000 -0.850652 117 240 82
-0.894426 0.000000 -0.447216 252 246 97
-0.525730 0.000000 -0.850652 108 255 72
0.850648 0.000000 -0.525736 241 145 242
0.425323 -0.309011 -0.850654 92 166 91
0.262869 -0.809012 -0.525738 18 255 15
0.425323 -0.309011 -0.850654 4 255 2
3 0 1 2
3 3 4 5
3 0 2 6
3 7 8 9
3 7 9 10
3 11 12 13
3 14 15 16
3 17 18 19
3 20 21 22
3 23 24 25
3 26 27 28
3 14 16 29
3 17 19 30
3 20 22 31
3 23 25 32
3 33 34 35
3 36 37 38
3 39 40 41
3 42 43 44
3 45 46 47
3 47 44 48
3 47 46 44
3 46 42 44
3 44 41 48
3 44 43 41
3 43 39 41
3 41 38 48
3 41 40 38
3 40 36 38
3 38 35 48
3 38 37 35
3 49 33 35
3 35 47 48
3 35 34 47
3 34 45 47
3 50 46 51
3 52 25 53
3 54 42 46
3 55 43 42
3 31 22 56
3 57 39 43
3 30 40 39
3 30 58 40
3 58 36 40
3 59 37 36
3 60 61 49
3 61 33 49
3 28 34 33
3 28 27 34
3 27 45 34
3 25 31 62
3 25 24 31
3 24 20 31
3 22 63 64
3 22 21 63
3 65 17 30
3 58 59 36
3 19 18 66
3 67 68 29
3 61 28 33
3 16 15 69
3 15 11 69
3 70 52 71
3 70 72 52
3 5 23 73
3 10 24 23
3 10 9 24
3 9 20 24
3 9 74 20
3 9 8 74
3 75 76 21
3 77 18 17
3 6 2 67
3 2 68 67
3 78 10 23
3 78 79 10
3 79 7 10
3 2 80 68
3 2 1 80
3 81 11 15
