<svg xmlns="http://www.w3.org/2000/svg" xmlns:xlink="http://www.w3.org/1999/xlink" viewBox="0 0 32 32"><defs><style>.cls-1{fill:url(#linear-gradient);}.cls-2{fill:url(#linear-gradient-2);}.cls-3{fill:url(#linear-gradient-3);}.cls-4{fill:url(#linear-gradient-4);}.cls-5{fill:url(#linear-gradient-5);}</style><linearGradient id="linear-gradient" x1="2.22" y1="6.89" x2="29.41" y2="6.89" gradientUnits="userSpaceOnUse"><stop offset="0" stop-color="#ff6f00"/><stop offset="1" stop-color="#ffa800"/></linearGradient><linearGradient id="linear-gradient-2" x1="3.59" y1="23.72" x2="31.28" y2="23.72" xlink:href="#linear-gradient"/><linearGradient id="linear-gradient-3" x1="3.84" y1="21.45" x2="30.99" y2="21.45" xlink:href="#linear-gradient"/><linearGradient id="linear-gradient-4" x1="3.1" y1="25.1" x2="30.64" y2="25.1" xlink:href="#linear-gradient"/><linearGradient id="linear-gradient-5" x1="-2.35" y1="7.48" x2="25.76" y2="7.48" gradientTransform="translate(5.6 8.03) rotate(1.12)" xlink:href="#linear-gradient"/></defs><title>TF_</title><g id="Layer_2" data-name="Layer 2"><polygon class="cls-1" points="28.41 13.7 30.12 12.72 30.12 8.22 16 0.07 4.56 6.67 6.26 7.65 16 2.04 28.41 9.2 28.41 13.7"/><polygon class="cls-2" points="17.55 31.81 22.3 29.07 22.3 15.63 17.55 18.37 17.55 31.81"/><polygon class="cls-3" points="25.38 18.36 25.38 27.27 30.13 24.53 30.13 15.62 25.38 18.36"/><polygon class="cls-4" points="4.57 18.27 1.9 19.13 1.9 24.69 14.47 31.93 14.47 20.64 9.33 25.56 4.57 18.27"/><polygon class="cls-5" points="2.04 8.34 1.87 17.04 5.34 16 9.53 22.68 14.42 18.18 14.47 15.82 2.04 8.34"/></g></svg>