<svg xmlns="http://www.w3.org/2000/svg" xmlns:xlink="http://www.w3.org/1999/xlink" viewBox="0 0 600 600"><defs><style>.cls-1{fill:none;}.cls-2{clip-path:url(#clip-path);}.cls-3{fill:url(#linear-gradient);}.cls-4{clip-path:url(#clip-path-2);}.cls-5{fill:url(#linear-gradient-2);}.cls-6{fill:#425066;}.cls-7{fill:#fff;}</style><clipPath id="clip-path"><polygon class="cls-1" points="472.61 202.19 307.09 107.63 307.09 495.26 373.2 456.86 373.2 347.8 423.15 376.7 422.87 302.11 373.2 273.73 373.2 230.41 472.83 287.98 472.61 202.19"/></clipPath><linearGradient id="linear-gradient" x1="111.39" y1="300.98" x2="517.87" y2="300.98" gradientUnits="userSpaceOnUse"><stop offset="0" stop-color="#ff6f00"/><stop offset="1" stop-color="#ffa800"/></linearGradient><clipPath id="clip-path-2"><polygon class="cls-1" points="126.68 202.19 292.2 107.63 292.2 495.26 226.08 456.86 226.08 230.41 126.45 287.98 126.68 202.19"/></clipPath><linearGradient id="linear-gradient-2" x1="108.65" y1="300.98" x2="515.12" y2="300.98" xlink:href="#linear-gradient"/></defs><title>TF_</title><g id="Layer_2" data-name="Layer 2"><g class="cls-2"><rect class="cls-3" x="111.39" y="106.21" width="406.47" height="389.54"/></g><g class="cls-4"><rect class="cls-5" x="108.65" y="106.21" width="406.47" height="389.54"/></g><circle class="cls-6" cx="420.16" cy="476.14" r="84.38"/><path class="cls-7" d="M420.13,406.94l-48.44,27.92L378.9,439l41.23-23.77,52.56,30.35v19.06l7.2-4.16V441.44Z"/><polygon class="cls-7" points="426.68 541.33 446.79 529.71 446.79 472.79 426.68 484.4 426.68 541.33"/><polygon class="cls-7" points="459.83 522.1 479.95 510.49 479.95 472.77 459.83 484.39 459.83 522.1"/><polygon class="cls-7" points="391.9 514.85 371.73 483.99 360.44 487.63 360.44 511.18 413.67 541.82 413.67 494.03 391.9 514.85"/><polygon class="cls-7" points="375.05 474.61 393.31 502.55 413.67 483.08 413.67 473.08 360.44 442.45 360.44 479.32 375.05 474.61"/></g></svg>